<?xml version="1.0" standalone="no"?>
<svg xmlns:xlink="http://www.w3.org/1999/xlink" id="wave" style="transform:rotate(0deg); transition: 0.3s" viewBox="0 0 1440 120" version="1.1" xmlns="http://www.w3.org/2000/svg"><defs><linearGradient id="sw-gradient-0" x1="0" x2="0" y1="1" y2="0"><stop stop-color="rgba(0, 153, 255, 1)" offset="0%"/><stop stop-color="rgba(0, 153, 255, 1)" offset="100%"/></linearGradient></defs><path style="transform:translate(0, 0px); opacity:1" fill="url(#sw-gradient-0)" d="M0,84L15,72C30,60,60,36,90,38C120,40,150,68,180,72C210,76,240,56,270,50C300,44,330,52,360,60C390,68,420,76,450,78C480,80,510,76,540,62C570,48,600,24,630,24C660,24,690,48,720,62C750,76,780,80,810,86C840,92,870,100,900,96C930,92,960,76,990,72C1020,68,1050,76,1080,70C1110,64,1140,44,1170,36C1200,28,1230,32,1260,42C1290,52,1320,68,1350,64C1380,60,1410,36,1440,40C1470,44,1500,76,1530,92C1560,108,1590,108,1620,96C1650,84,1680,60,1710,60C1740,60,1770,84,1800,84C1830,84,1860,60,1890,58C1920,56,1950,76,1980,70C2010,64,2040,32,2070,26C2100,20,2130,40,2145,50L2160,60L2160,120L2145,120C2130,120,2100,120,2070,120C2040,120,2010,120,1980,120C1950,120,1920,120,1890,120C1860,120,1830,120,1800,120C1770,120,1740,120,1710,120C1680,120,1650,120,1620,120C1590,120,1560,120,1530,120C1500,120,1470,120,1440,120C1410,120,1380,120,1350,120C1320,120,1290,120,1260,120C1230,120,1200,120,1170,120C1140,120,1110,120,1080,120C1050,120,1020,120,990,120C960,120,930,120,900,120C870,120,840,120,810,120C780,120,750,120,720,120C690,120,660,120,630,120C600,120,570,120,540,120C510,120,480,120,450,120C420,120,390,120,360,120C330,120,300,120,270,120C240,120,210,120,180,120C150,120,120,120,90,120C60,120,30,120,15,120L0,120Z"/></svg>